# xmcd CD database file
#
# Track frame offsets:
#	150
#	310053
#	324679
#	343472
#
# Disc length: 4741 seconds
#
# Revision: 0
# Processed by: cddbd v1.5.2PL0 Copyright (c) Steve Scherf et al.
# Submitted via: CDex 1.51
#
DISCID=39128304
DTITLE=Madeleine Peyroux - RadioEINS Konzert 2004
DYEAR=1900
DGENRE=Jazz
TTITLE0=Madeleine Peyroux - RadioEINS Konzert 2004
TTITLE1=Life Is Fine (distortion EQ'd - Life Is Fine (distortion EQ'd)
TTITLE2=Rock Island Line - Rock Island Line
TTITLE3=I Wish I Could Shimmy Like My Sister Kate (AJ Piron - I Wish I Could Shimmy Like My Sister Kate
EXTD=
EXTT0=
EXTT1=
EXTT2=
EXTT3=
PLAYORDER=
